<?xml version="1.0" encoding="UTF-8" standalone="no"?>
<!-- Created with Inkscape (http://www.inkscape.org/) -->

<svg
   xmlns:dc="http://purl.org/dc/elements/1.1/"
   xmlns:cc="http://creativecommons.org/ns#"
   xmlns:rdf="http://www.w3.org/1999/02/22-rdf-syntax-ns#"
   xmlns:svg="http://www.w3.org/2000/svg"
   xmlns="http://www.w3.org/2000/svg"
   xmlns:sodipodi="http://sodipodi.sourceforge.net/DTD/sodipodi-0.dtd"
   xmlns:inkscape="http://www.inkscape.org/namespaces/inkscape"
   version="1.1"
   id="svg94226"
   xml:space="preserve"
   width="666.66669"
   height="666.66669"
   viewBox="0 0 666.66669 666.66669"
   sodipodi:docname="open-window-publicdomainvectors.org.svg"
   inkscape:version="0.92.4 (5da689c313, 2019-01-14)"><metadata
     id="metadata94232"><rdf:RDF><cc:Work
         rdf:about=""><dc:format>image/svg+xml</dc:format><dc:type
           rdf:resource="http://purl.org/dc/dcmitype/StillImage" /><dc:title></dc:title></cc:Work></rdf:RDF></metadata><defs
     id="defs94230"><clipPath
       clipPathUnits="userSpaceOnUse"
       id="clipPath94242"><path
         d="M 0,500 H 500 V 0 H 0 Z"
         id="path94240"
         inkscape:connector-curvature="0" /></clipPath><clipPath
       clipPathUnits="userSpaceOnUse"
       id="clipPath94252"><path
         d="M 43.769,432.243 H 454.23 V 111.569 H 43.769 Z"
         id="path94250"
         inkscape:connector-curvature="0" /></clipPath><linearGradient
       x1="0"
       y1="0"
       x2="1"
       y2="0"
       gradientUnits="userSpaceOnUse"
       gradientTransform="matrix(-1.53e-5,-451.07748,-451.07748,1.53e-5,409.60742,565.85693)"
       spreadMethod="pad"
       id="linearGradient94284"><stop
         style="stop-opacity:1;stop-color:#ffffff"
         offset="0"
         id="stop94280" /><stop
         style="stop-opacity:1;stop-color:#29abe2"
         offset="1"
         id="stop94282" /></linearGradient><linearGradient
       x1="0"
       y1="0"
       x2="1"
       y2="0"
       gradientUnits="userSpaceOnUse"
       gradientTransform="matrix(-1.53e-5,-451.07919,-451.07919,1.53e-5,102.38135,565.85742)"
       spreadMethod="pad"
       id="linearGradient94304"><stop
         style="stop-opacity:1;stop-color:#ffffff"
         offset="0"
         id="stop94300" /><stop
         style="stop-opacity:1;stop-color:#29abe2"
         offset="1"
         id="stop94302" /></linearGradient><linearGradient
       x1="0"
       y1="0"
       x2="1"
       y2="0"
       gradientUnits="userSpaceOnUse"
       gradientTransform="matrix(-1.53e-5,-451.07846,-451.07846,1.53e-5,252.02832,565.85742)"
       spreadMethod="pad"
       id="linearGradient94346"><stop
         style="stop-opacity:1;stop-color:#ffffff"
         offset="0"
         id="stop94342" /><stop
         style="stop-opacity:1;stop-color:#29abe2"
         offset="1"
         id="stop94344" /></linearGradient></defs><sodipodi:namedview
     pagecolor="#ffffff"
     bordercolor="#666666"
     borderopacity="1"
     objecttolerance="10"
     gridtolerance="10"
     guidetolerance="10"
     inkscape:pageopacity="0"
     inkscape:pageshadow="2"
     inkscape:window-width="797"
     inkscape:window-height="480"
     id="namedview94228"
     showgrid="false"
     inkscape:zoom="0.35399999"
     inkscape:cx="333.33334"
     inkscape:cy="333.33334"
     inkscape:window-x="0"
     inkscape:window-y="0"
     inkscape:window-maximized="0"
     inkscape:current-layer="g94234" /><g
     id="g94234"
     inkscape:groupmode="layer"
     inkscape:label="open-window-publicdomainvectors.org"
     transform="matrix(1.3333333,0,0,-1.3333333,0,666.66667)"><g
       id="g94236"><g
         id="g94238"
         clip-path="url(#clipPath94242)"><path
           d="M 500,0 H 0 v 500 h 500 z"
           style="fill:#ed462f;fill-opacity:1;fill-rule:nonzero;stroke:none"
           id="path94244"
           inkscape:connector-curvature="0" /><g
           id="g94246"><g
             id="g94248" /><g
             id="g94258"><g
               clip-path="url(#clipPath94252)"
               id="g94256"><path
                 d="M 95.968,418.469 43.769,432.243 111.11,132.948 454.23,111.569 224.415,379.866 Z"
                 style="fill:#cccccc;fill-opacity:1;fill-rule:nonzero;stroke:none"
                 id="path94254"
                 inkscape:connector-curvature="0" /></g></g></g><path
           d="M 386.89,161.809 429.646,132.948 425.37,434.38 387.958,407.124 Z"
           style="fill:#e0e0e0;fill-opacity:1;fill-rule:nonzero;stroke:none"
           id="path94260"
           inkscape:connector-curvature="0" /><path
           d="m 113.783,424.226 21.378,-268.296 251.729,5.879 1.068,245.315 z"
           style="fill:#ffffff;fill-opacity:1;fill-rule:nonzero;stroke:none"
           id="path94262"
           inkscape:connector-curvature="0" /><path
           d="m 95.077,118.518 c 2.672,2.671 40.084,37.412 40.084,37.412 L 113.783,424.226 68.889,459.5 Z"
           style="fill:#e0e0e0;fill-opacity:1;fill-rule:nonzero;stroke:none"
           id="path94264"
           inkscape:connector-curvature="0" /><path
           d="m 425.37,434.38 9.62,1.07 4.276,-305.175 -9.62,2.673 z"
           style="fill:#ffffff;fill-opacity:1;fill-rule:nonzero;stroke:none"
           id="path94266"
           inkscape:connector-curvature="0" /><g
           id="g94268"><g
             id="g94270"><g
               id="g94276"><g
                 id="g94278"><path
                   d="m 421.629,161.274 -3.207,245.85 -20.836,-11.491 0.527,-218.86 z"
                   style="fill:url(#linearGradient94284);stroke:none"
                   id="path94286"
                   inkscape:connector-curvature="0" /></g></g></g></g><g
           id="g94288"><g
             id="g94290"><g
               id="g94296"><g
                 id="g94298"><path
                   d="m 100.065,153.613 c 0,2.317 -18.171,275.78 -18.171,275.78 l 23.872,-18.528 17.103,-241.842 z"
                   style="fill:url(#linearGradient94304);stroke:none"
                   id="path94306"
                   inkscape:connector-curvature="0" /></g></g></g></g><path
           d="m 120.196,406.055 5.879,-6.414 252.798,-14.43 4.275,4.81 z"
           style="fill:#b5b5b5;fill-opacity:1;fill-rule:nonzero;stroke:none"
           id="path94308"
           inkscape:connector-curvature="0" /><path
           d="m 137.833,172.498 243.712,7.482 -7.482,5.879 -231.954,-6.68 z"
           style="fill:#f2f2f2;fill-opacity:1;fill-rule:nonzero;stroke:none"
           id="path94310"
           inkscape:connector-curvature="0" /><path
           d="m 126.075,399.641 16.034,-220.462 -4.276,-6.681 -17.637,233.557 z"
           style="fill:#e0e0e0;fill-opacity:1;fill-rule:nonzero;stroke:none"
           id="path94312"
           inkscape:connector-curvature="0" /><path
           d="m 383.148,390.021 -4.275,-4.81 -4.81,-199.352 7.482,-5.879 z"
           style="fill:#e0e0e0;fill-opacity:1;fill-rule:nonzero;stroke:none"
           id="path94314"
           inkscape:connector-curvature="0" /><path
           d="M 68.889,457.896 H 59.803 L 83.319,118.518 h 11.758 z"
           style="fill:#ffffff;fill-opacity:1;fill-rule:nonzero;stroke:none"
           id="path94316"
           inkscape:connector-curvature="0" /><path
           d="m 395.976,396.969 -1.07,-221.265 3.207,1.069 -0.535,221.799 z"
           style="fill:#ffffff;fill-opacity:1;fill-rule:nonzero;stroke:none"
           id="path94318"
           inkscape:connector-curvature="0" /><path
           d="m 421.629,161.274 c 0,2.138 -1.604,4.276 -1.604,4.276 l -21.912,11.223 -3.207,-1.069 z"
           style="fill:#ffffff;fill-opacity:1;fill-rule:nonzero;stroke:none"
           id="path94320"
           inkscape:connector-curvature="0" /><path
           d="m 397.586,395.633 20.836,11.491 -2.138,3.206 -18.706,-11.758 z"
           style="fill:#b5b5b5;fill-opacity:1;fill-rule:nonzero;stroke:none"
           id="path94322"
           inkscape:connector-curvature="0" /><path
           d="m 122.869,169.023 4.988,-0.445 -27.792,-16.39 v 3.742 z"
           style="fill:#ffffff;fill-opacity:1;fill-rule:nonzero;stroke:none"
           id="path94324"
           inkscape:connector-curvature="0" /><path
           d="m 105.766,410.865 17.103,-241.842 4.988,-0.445 -18.528,243.356 z"
           style="fill:#ffffff;fill-opacity:1;fill-rule:nonzero;stroke:none"
           id="path94326"
           inkscape:connector-curvature="0" /><path
           d="m 82.606,428.68 1.425,-4.454 21.735,-13.361 3.563,1.069 z"
           style="fill:#b5b5b5;fill-opacity:1;fill-rule:nonzero;stroke:none"
           id="path94328"
           inkscape:connector-curvature="0" /><g
           id="g94330"><g
             id="g94332"><g
               id="g94338"><g
                 id="g94340"><path
                   d="m 123.581,400.888 16.747,-225.184 235.159,6.771 4.989,205.586 z"
                   style="fill:url(#linearGradient94346);stroke:none"
                   id="path94348"
                   inkscape:connector-curvature="0" /></g></g></g></g><path
           d="m 181.973,351.965 c 0,5.005 -4.057,9.062 -9.062,9.062 -0.388,0 -0.769,-0.027 -1.143,-0.074 -0.7,4.31 -4.436,7.601 -8.944,7.601 -5.005,0 -9.062,-4.058 -9.062,-9.063 0,-0.129 0.005,-0.258 0.01,-0.386 -0.83,0.25 -1.709,0.386 -2.621,0.386 -4.811,0 -8.744,-3.749 -9.042,-8.486 l 39.826,0.143 c 0.023,0.269 0.038,0.541 0.038,0.817"
           style="fill:#ffffff;fill-opacity:1;fill-rule:nonzero;stroke:none"
           id="path94350"
           inkscape:connector-curvature="0" /><path
           d="m 343.532,278.66 c 2.751,3.189 4.418,7.34 4.418,11.882 0,10.054 -8.15,18.206 -18.205,18.206 -6.631,0 -12.432,-3.546 -15.615,-8.844 -4.037,5.492 -10.54,9.057 -17.878,9.057 -12.249,0 -22.179,-9.929 -22.179,-22.178 0,-0.318 0.011,-0.632 0.024,-0.946 -2.032,0.613 -4.184,0.946 -6.414,0.946 -12.249,0 -22.18,-9.93 -22.18,-22.179 0,-2.349 0.368,-4.61 1.044,-6.734 l 112.612,4.249 c -0.691,8.522 -7.244,15.384 -15.627,16.541"
           style="fill:#ffffff;fill-opacity:1;fill-rule:nonzero;stroke:none"
           id="path94352"
           inkscape:connector-curvature="0" /><path
           d="m 300.73,327.221 c -2.484,7.804 -9.789,13.459 -18.416,13.459 -2.6,0 -5.08,-0.517 -7.344,-1.449 -0.608,13.397 -11.657,24.073 -25.205,24.073 -13.477,0 -24.485,-10.566 -25.196,-23.866 -1.894,0.799 -3.976,1.242 -6.161,1.242 -8.762,0 -15.864,-7.103 -15.864,-15.865 0,-0.437 0.025,-0.868 0.06,-1.296 z"
           style="fill:#ffffff;fill-opacity:1;fill-rule:nonzero;stroke:none"
           id="path94354"
           inkscape:connector-curvature="0" /></g></g></g></svg>